<svg width="24" height="24" viewBox="0 0 24 24" xmlns="http://www.w3.org/2000/svg" xmlns:xlink="http://www.w3.org/1999/xlink" stroke="currentColor" stroke-width="2" stroke-linecap="round" stroke-linejoin="round" fill="none" overflow="hidden"><path d="M9 19C4 20.5 4 16.5 2 16M16 22 16 18.13C16.0759 17.1654 15.7335 16.2147 15.06 15.52 18.2 15.17 21.5 13.98 21.5 8.52 21.4997 7.12383 20.9627 5.7812 20 4.77 20.4559 3.54851 20.4236 2.19835 19.91 1 19.91 1 18.73 0.65 16 2.48 13.708 1.85882 11.292 1.85882 9 2.48 6.27 0.65 5.09 1 5.09 1 4.57638 2.19835 4.54414 3.54851 5 4.77 4.03013 5.7887 3.49252 7.14346 3.5 8.55 3.5 13.97 6.8 15.16 9.94 15.55 9.27462 16.2376 8.93287 17.1756 9 18.13L9 22" stroke="#FFFFFF"/></svg>