<svg width="515" height="515" xmlns="http://www.w3.org/2000/svg" xmlns:xlink="http://www.w3.org/1999/xlink" overflow="hidden"><defs><clipPath id="clip0"><rect x="151" y="82" width="515" height="515"/></clipPath></defs><g clip-path="url(#clip0)" transform="translate(-151 -82)"><path d="M408.5 83.5001C549.885 83.5001 664.5 198.339 664.5 340 664.5 481.661 549.885 596.5 408.5 596.5 399.664 596.5 390.932 596.051 382.326 595.176L357.077 591.315 426.56 535.746 418.495 526.05 397.85 542.21 361.722 515.384 361.722 297.545 426.56 297.545 426.56 261.346 361.722 261.346 364.948 172.141 355.593 172.141 265.595 283.359 265.595 297.545 295.917 297.545 295.917 482.993C295.917 498.096 294.089 509.639 290.433 517.622 287.637 523.88 281.939 529.922 273.337 535.746L273.337 542.21C296.265 548.836 317.39 559.946 336.711 575.541L352.805 590.232 332.374 584.968C228.164 552.492 152.5 455.1 152.5 340 152.5 198.339 267.115 83.5001 408.5 83.5001Z" stroke="#000000" stroke-width="1.33333" stroke-miterlimit="8" fill-rule="evenodd"/></g></svg>