<svg width="24" height="24" viewBox="0 0 24 24" xmlns="http://www.w3.org/2000/svg" xmlns:xlink="http://www.w3.org/1999/xlink" stroke="currentColor" stroke-width="2" stroke-linecap="round" stroke-linejoin="round" fill="none" overflow="hidden"><path d="M23 3C22.0424 3.67548 20.9821 4.19211 19.86 4.53 18.2363 2.66306 15.4066 2.46586 13.5397 4.08954 12.5455 4.95417 11.9823 6.21257 12 7.53L12 8.53C8.43067 8.62255 5.05203 6.92197 3 4 3 4-1 13 8 17 5.94053 18.398 3.48716 19.0989 1 19 10 24 21 19 21 7.5 20.9991 7.22145 20.9723 6.94359 20.92 6.67 21.9406 5.66349 22.6608 4.39271 23 3Z" stroke="#FFFFFF"/></svg>