<svg width="205" height="205" xmlns="http://www.w3.org/2000/svg" xmlns:xlink="http://www.w3.org/1999/xlink" overflow="hidden"><defs><clipPath id="clip0"><rect x="19" y="21" width="205" height="205"/></clipPath></defs><g clip-path="url(#clip0)" transform="translate(-19 -21)"><path d="M20 123.5C20 67.4431 65.4431 22 121.5 22 177.557 22 223 67.4431 223 123.5 223 179.557 177.557 225 121.5 225 65.4431 225 20 179.557 20 123.5Z" fill="#FFFFFF" fill-rule="evenodd"/><path d="M100.933 65C107.021 69.0958 110.967 72.662 112.772 75.6985 114.577 78.7351 115.479 82.9015 115.479 88.1978L115.479 90.5282 147.49 65C158.497 76.5106 164 88.8333 164 101.968 164 109.03 162.195 116.074 158.585 123.1 154.975 130.127 149.313 136.8 141.598 143.12 133.882 149.441 121.425 157.72 104.225 167.96 96.7218 172.48 92.2272 175.34 90.7407 176.54 87.5556 179.012 85.2905 181.413 83.9457 183.743 82.9547 185.438 82.4592 187.344 82.4592 189.463 82.4592 193.064 84.2465 196.401 87.821 199.473 91.3955 202.545 96.1202 204.081 101.995 204.081 106.242 204.081 109.746 203.339 112.506 201.856 113.851 201.15 115.161 199.649 116.435 197.354 117.709 195.059 118.806 193.559 119.726 192.853 120.646 192.146 121.743 191.793 123.017 191.793 124.433 191.793 125.565 192.182 126.415 192.959 127.264 193.735 127.689 194.759 127.689 196.03 127.689 198.29 126.026 200.515 122.699 202.704 117.602 206.235 111.161 208 103.375 208 95.2354 208 88.9712 206.076 84.5827 202.227 80.1942 198.378 78 193.806 78 188.51 78 183.284 80.4586 178.2 85.3757 173.256 87.727 170.855 89.1879 169.161 89.7586 168.172 91.3258 165.488 92.3944 162.999 92.9646 160.704 93.5347 158.409 93.8197 155.178 93.8197 151.012L93.8197 100.379C93.8197 93.3176 93.0124 88.5156 91.3977 85.9733 90.1346 83.9961 88.766 83.0074 87.2918 83.0074 86.0984 83.0074 84.5545 83.9254 82.66 85.7615 82.3791 86.044 81.9229 86.4677 81.2913 87.0326L78.637 83.537 100.933 65ZM131.314 82.7807 115.479 95.409 115.479 155.567C125.421 148.364 132.489 140.86 136.685 133.055 140.88 125.25 142.978 117.816 142.978 110.752 142.978 101.216 139.09 91.8925 131.314 82.7807Z" fill-rule="evenodd"/></g></svg>